<mxfile host="app.diagrams.net" agent="Mozilla/5.0 (Windows NT 10.0; Win64; x64) AppleWebKit/537.36 (KHTML, like Gecko) Chrome/129.0.0.0 Safari/537.36 Edg/129.0.0.0" version="24.7.17" pages="3">
  <diagram name="Gestion de Vuelos" id="Gz8b_kuvwPYw_JvvUMW7">
    <mxGraphModel dx="872" dy="443" grid="1" gridSize="10" guides="1" tooltips="1" connect="1" arrows="1" fold="1" page="1" pageScale="1" pageWidth="1600" pageHeight="900" math="0" shadow="0">
      <root>
        <mxCell id="0" />
        <mxCell id="1" parent="0" />
        <mxCell id="jNRlirX99Xx3oKmhsUCX-5" value="Asiento" style="swimlane;fontStyle=1;align=center;verticalAlign=top;childLayout=stackLayout;horizontal=1;startSize=30;horizontalStack=0;resizeParent=1;resizeParentMax=0;resizeLast=0;collapsible=1;marginBottom=0;whiteSpace=wrap;html=1;" parent="1" vertex="1">
          <mxGeometry x="525" y="210" width="160" height="142" as="geometry">
            <mxRectangle x="670" y="180" width="110" height="40" as="alternateBounds" />
          </mxGeometry>
        </mxCell>
        <mxCell id="jNRlirX99Xx3oKmhsUCX-12" value="- id: String" style="text;strokeColor=none;fillColor=none;align=left;verticalAlign=top;spacingLeft=4;spacingRight=4;overflow=hidden;rotatable=0;points=[[0,0.5],[1,0.5]];portConstraint=eastwest;whiteSpace=wrap;html=1;" parent="jNRlirX99Xx3oKmhsUCX-5" vertex="1">
          <mxGeometry y="30" width="160" height="26" as="geometry" />
        </mxCell>
        <mxCell id="jNRlirX99Xx3oKmhsUCX-13" value="- disponible: boolean" style="text;strokeColor=none;fillColor=none;align=left;verticalAlign=top;spacingLeft=4;spacingRight=4;overflow=hidden;rotatable=0;points=[[0,0.5],[1,0.5]];portConstraint=eastwest;whiteSpace=wrap;html=1;" parent="jNRlirX99Xx3oKmhsUCX-5" vertex="1">
          <mxGeometry y="56" width="160" height="26" as="geometry" />
        </mxCell>
        <mxCell id="zvzevLNS8tnTN_DHtSrc-12" value="- tipo: TipoAsiento" style="text;strokeColor=none;fillColor=none;align=left;verticalAlign=top;spacingLeft=4;spacingRight=4;overflow=hidden;rotatable=0;points=[[0,0.5],[1,0.5]];portConstraint=eastwest;whiteSpace=wrap;html=1;" parent="jNRlirX99Xx3oKmhsUCX-5" vertex="1">
          <mxGeometry y="82" width="160" height="26" as="geometry" />
        </mxCell>
        <mxCell id="jNRlirX99Xx3oKmhsUCX-7" value="" style="line;strokeWidth=1;fillColor=none;align=left;verticalAlign=middle;spacingTop=-1;spacingLeft=3;spacingRight=3;rotatable=0;labelPosition=right;points=[];portConstraint=eastwest;strokeColor=inherit;" parent="jNRlirX99Xx3oKmhsUCX-5" vertex="1">
          <mxGeometry y="108" width="160" height="8" as="geometry" />
        </mxCell>
        <mxCell id="jNRlirX99Xx3oKmhsUCX-8" value="+ method(type): type" style="text;strokeColor=none;fillColor=none;align=left;verticalAlign=top;spacingLeft=4;spacingRight=4;overflow=hidden;rotatable=0;points=[[0,0.5],[1,0.5]];portConstraint=eastwest;whiteSpace=wrap;html=1;" parent="jNRlirX99Xx3oKmhsUCX-5" vertex="1">
          <mxGeometry y="116" width="160" height="26" as="geometry" />
        </mxCell>
        <mxCell id="jNRlirX99Xx3oKmhsUCX-24" value="Aeropuerto" style="swimlane;fontStyle=1;align=center;verticalAlign=top;childLayout=stackLayout;horizontal=1;startSize=26;horizontalStack=0;resizeParent=1;resizeParentMax=0;resizeLast=0;collapsible=1;marginBottom=0;whiteSpace=wrap;html=1;" parent="1" vertex="1">
          <mxGeometry x="195" y="210" width="160" height="164" as="geometry" />
        </mxCell>
        <mxCell id="jNRlirX99Xx3oKmhsUCX-2" value="- codigoIATA: String" style="text;strokeColor=none;fillColor=none;align=left;verticalAlign=top;spacingLeft=4;spacingRight=4;overflow=hidden;rotatable=0;points=[[0,0.5],[1,0.5]];portConstraint=eastwest;whiteSpace=wrap;html=1;" parent="jNRlirX99Xx3oKmhsUCX-24" vertex="1">
          <mxGeometry y="26" width="160" height="26" as="geometry" />
        </mxCell>
        <mxCell id="jNRlirX99Xx3oKmhsUCX-9" value="- nombreAeropuesto: String" style="text;strokeColor=none;fillColor=none;align=left;verticalAlign=top;spacingLeft=4;spacingRight=4;overflow=hidden;rotatable=0;points=[[0,0.5],[1,0.5]];portConstraint=eastwest;whiteSpace=wrap;html=1;" parent="jNRlirX99Xx3oKmhsUCX-24" vertex="1">
          <mxGeometry y="52" width="160" height="26" as="geometry" />
        </mxCell>
        <mxCell id="jNRlirX99Xx3oKmhsUCX-10" value="- ciudad: String" style="text;strokeColor=none;fillColor=none;align=left;verticalAlign=top;spacingLeft=4;spacingRight=4;overflow=hidden;rotatable=0;points=[[0,0.5],[1,0.5]];portConstraint=eastwest;whiteSpace=wrap;html=1;" parent="jNRlirX99Xx3oKmhsUCX-24" vertex="1">
          <mxGeometry y="78" width="160" height="26" as="geometry" />
        </mxCell>
        <mxCell id="jNRlirX99Xx3oKmhsUCX-35" value="- pais: String" style="text;strokeColor=none;fillColor=none;align=left;verticalAlign=top;spacingLeft=4;spacingRight=4;overflow=hidden;rotatable=0;points=[[0,0.5],[1,0.5]];portConstraint=eastwest;whiteSpace=wrap;html=1;" parent="jNRlirX99Xx3oKmhsUCX-24" vertex="1">
          <mxGeometry y="104" width="160" height="26" as="geometry" />
        </mxCell>
        <mxCell id="jNRlirX99Xx3oKmhsUCX-26" value="" style="line;strokeWidth=1;fillColor=none;align=left;verticalAlign=middle;spacingTop=-1;spacingLeft=3;spacingRight=3;rotatable=0;labelPosition=right;points=[];portConstraint=eastwest;strokeColor=inherit;" parent="jNRlirX99Xx3oKmhsUCX-24" vertex="1">
          <mxGeometry y="130" width="160" height="8" as="geometry" />
        </mxCell>
        <mxCell id="jNRlirX99Xx3oKmhsUCX-27" value="+ method(type): type" style="text;strokeColor=none;fillColor=none;align=left;verticalAlign=top;spacingLeft=4;spacingRight=4;overflow=hidden;rotatable=0;points=[[0,0.5],[1,0.5]];portConstraint=eastwest;whiteSpace=wrap;html=1;" parent="jNRlirX99Xx3oKmhsUCX-24" vertex="1">
          <mxGeometry y="138" width="160" height="26" as="geometry" />
        </mxCell>
        <mxCell id="jNRlirX99Xx3oKmhsUCX-28" value="&lt;div&gt;&amp;lt;&amp;lt;Abstracta&amp;gt;&amp;gt;&lt;/div&gt;Persona" style="swimlane;fontStyle=1;align=center;verticalAlign=top;childLayout=stackLayout;horizontal=1;startSize=39;horizontalStack=0;resizeParent=1;resizeParentMax=0;resizeLast=0;collapsible=1;marginBottom=0;whiteSpace=wrap;html=1;" parent="1" vertex="1">
          <mxGeometry x="1190" y="60" width="160" height="177" as="geometry" />
        </mxCell>
        <mxCell id="UA21897XL3gW9iZpCjo0-13" value="- idPersona: String" style="text;strokeColor=none;fillColor=none;align=left;verticalAlign=top;spacingLeft=4;spacingRight=4;overflow=hidden;rotatable=0;points=[[0,0.5],[1,0.5]];portConstraint=eastwest;whiteSpace=wrap;html=1;" parent="jNRlirX99Xx3oKmhsUCX-28" vertex="1">
          <mxGeometry y="39" width="160" height="26" as="geometry" />
        </mxCell>
        <mxCell id="jNRlirX99Xx3oKmhsUCX-29" value="- nombre: String" style="text;strokeColor=none;fillColor=none;align=left;verticalAlign=top;spacingLeft=4;spacingRight=4;overflow=hidden;rotatable=0;points=[[0,0.5],[1,0.5]];portConstraint=eastwest;whiteSpace=wrap;html=1;" parent="jNRlirX99Xx3oKmhsUCX-28" vertex="1">
          <mxGeometry y="65" width="160" height="26" as="geometry" />
        </mxCell>
        <mxCell id="jNRlirX99Xx3oKmhsUCX-32" value="- identificacion: String" style="text;strokeColor=none;fillColor=none;align=left;verticalAlign=top;spacingLeft=4;spacingRight=4;overflow=hidden;rotatable=0;points=[[0,0.5],[1,0.5]];portConstraint=eastwest;whiteSpace=wrap;html=1;" parent="jNRlirX99Xx3oKmhsUCX-28" vertex="1">
          <mxGeometry y="91" width="160" height="26" as="geometry" />
        </mxCell>
        <mxCell id="UA21897XL3gW9iZpCjo0-12" value="- correoElectronico: String" style="text;strokeColor=none;fillColor=none;align=left;verticalAlign=top;spacingLeft=4;spacingRight=4;overflow=hidden;rotatable=0;points=[[0,0.5],[1,0.5]];portConstraint=eastwest;whiteSpace=wrap;html=1;" parent="jNRlirX99Xx3oKmhsUCX-28" vertex="1">
          <mxGeometry y="117" width="160" height="26" as="geometry" />
        </mxCell>
        <mxCell id="jNRlirX99Xx3oKmhsUCX-30" value="" style="line;strokeWidth=1;fillColor=none;align=left;verticalAlign=middle;spacingTop=-1;spacingLeft=3;spacingRight=3;rotatable=0;labelPosition=right;points=[];portConstraint=eastwest;strokeColor=inherit;" parent="jNRlirX99Xx3oKmhsUCX-28" vertex="1">
          <mxGeometry y="143" width="160" height="8" as="geometry" />
        </mxCell>
        <mxCell id="jNRlirX99Xx3oKmhsUCX-31" value="+ method(type): type" style="text;strokeColor=none;fillColor=none;align=left;verticalAlign=top;spacingLeft=4;spacingRight=4;overflow=hidden;rotatable=0;points=[[0,0.5],[1,0.5]];portConstraint=eastwest;whiteSpace=wrap;html=1;" parent="jNRlirX99Xx3oKmhsUCX-28" vertex="1">
          <mxGeometry y="151" width="160" height="26" as="geometry" />
        </mxCell>
        <mxCell id="jNRlirX99Xx3oKmhsUCX-37" value="Aerolinea" style="swimlane;fontStyle=1;align=center;verticalAlign=top;childLayout=stackLayout;horizontal=1;startSize=26;horizontalStack=0;resizeParent=1;resizeParentMax=0;resizeLast=0;collapsible=1;marginBottom=0;whiteSpace=wrap;html=1;" parent="1" vertex="1">
          <mxGeometry x="265" y="590" width="160" height="138" as="geometry" />
        </mxCell>
        <mxCell id="jNRlirX99Xx3oKmhsUCX-38" value="- nombre: String" style="text;strokeColor=none;fillColor=none;align=left;verticalAlign=top;spacingLeft=4;spacingRight=4;overflow=hidden;rotatable=0;points=[[0,0.5],[1,0.5]];portConstraint=eastwest;whiteSpace=wrap;html=1;" parent="jNRlirX99Xx3oKmhsUCX-37" vertex="1">
          <mxGeometry y="26" width="160" height="26" as="geometry" />
        </mxCell>
        <mxCell id="jNRlirX99Xx3oKmhsUCX-41" value="- siglas: Stirng" style="text;strokeColor=none;fillColor=none;align=left;verticalAlign=top;spacingLeft=4;spacingRight=4;overflow=hidden;rotatable=0;points=[[0,0.5],[1,0.5]];portConstraint=eastwest;whiteSpace=wrap;html=1;" parent="jNRlirX99Xx3oKmhsUCX-37" vertex="1">
          <mxGeometry y="52" width="160" height="26" as="geometry" />
        </mxCell>
        <mxCell id="jNRlirX99Xx3oKmhsUCX-42" value="- destino: list&amp;lt;Aeropuertos&amp;gt;" style="text;strokeColor=none;fillColor=none;align=left;verticalAlign=top;spacingLeft=4;spacingRight=4;overflow=hidden;rotatable=0;points=[[0,0.5],[1,0.5]];portConstraint=eastwest;whiteSpace=wrap;html=1;" parent="jNRlirX99Xx3oKmhsUCX-37" vertex="1">
          <mxGeometry y="78" width="160" height="26" as="geometry" />
        </mxCell>
        <mxCell id="jNRlirX99Xx3oKmhsUCX-39" value="" style="line;strokeWidth=1;fillColor=none;align=left;verticalAlign=middle;spacingTop=-1;spacingLeft=3;spacingRight=3;rotatable=0;labelPosition=right;points=[];portConstraint=eastwest;strokeColor=inherit;" parent="jNRlirX99Xx3oKmhsUCX-37" vertex="1">
          <mxGeometry y="104" width="160" height="8" as="geometry" />
        </mxCell>
        <mxCell id="jNRlirX99Xx3oKmhsUCX-40" value="+ method(type): type" style="text;strokeColor=none;fillColor=none;align=left;verticalAlign=top;spacingLeft=4;spacingRight=4;overflow=hidden;rotatable=0;points=[[0,0.5],[1,0.5]];portConstraint=eastwest;whiteSpace=wrap;html=1;" parent="jNRlirX99Xx3oKmhsUCX-37" vertex="1">
          <mxGeometry y="112" width="160" height="26" as="geometry" />
        </mxCell>
        <mxCell id="jNRlirX99Xx3oKmhsUCX-43" value="Vuelo" style="swimlane;fontStyle=1;align=center;verticalAlign=top;childLayout=stackLayout;horizontal=1;startSize=26;horizontalStack=0;resizeParent=1;resizeParentMax=0;resizeLast=0;collapsible=1;marginBottom=0;whiteSpace=wrap;html=1;" parent="1" vertex="1">
          <mxGeometry x="525" y="457" width="590" height="424" as="geometry" />
        </mxCell>
        <mxCell id="jNRlirX99Xx3oKmhsUCX-44" value="- static contador: int = 1" style="text;strokeColor=none;fillColor=none;align=left;verticalAlign=top;spacingLeft=4;spacingRight=4;overflow=hidden;rotatable=0;points=[[0,0.5],[1,0.5]];portConstraint=eastwest;whiteSpace=wrap;html=1;" parent="jNRlirX99Xx3oKmhsUCX-43" vertex="1">
          <mxGeometry y="26" width="590" height="26" as="geometry" />
        </mxCell>
        <mxCell id="jNRlirX99Xx3oKmhsUCX-60" value="- id: int" style="text;strokeColor=none;fillColor=none;align=left;verticalAlign=top;spacingLeft=4;spacingRight=4;overflow=hidden;rotatable=0;points=[[0,0.5],[1,0.5]];portConstraint=eastwest;whiteSpace=wrap;html=1;" parent="jNRlirX99Xx3oKmhsUCX-43" vertex="1">
          <mxGeometry y="52" width="590" height="26" as="geometry" />
        </mxCell>
        <mxCell id="jNRlirX99Xx3oKmhsUCX-47" value="- codigo: Stirng" style="text;strokeColor=none;fillColor=none;align=left;verticalAlign=top;spacingLeft=4;spacingRight=4;overflow=hidden;rotatable=0;points=[[0,0.5],[1,0.5]];portConstraint=eastwest;whiteSpace=wrap;html=1;" parent="jNRlirX99Xx3oKmhsUCX-43" vertex="1">
          <mxGeometry y="78" width="590" height="26" as="geometry" />
        </mxCell>
        <mxCell id="jNRlirX99Xx3oKmhsUCX-48" value="- aerolinea: Aerolinea" style="text;strokeColor=none;fillColor=none;align=left;verticalAlign=top;spacingLeft=4;spacingRight=4;overflow=hidden;rotatable=0;points=[[0,0.5],[1,0.5]];portConstraint=eastwest;whiteSpace=wrap;html=1;" parent="jNRlirX99Xx3oKmhsUCX-43" vertex="1">
          <mxGeometry y="104" width="590" height="26" as="geometry" />
        </mxCell>
        <mxCell id="jNRlirX99Xx3oKmhsUCX-49" value="- aeropuetoOrigen: Aeropueto" style="text;strokeColor=none;fillColor=none;align=left;verticalAlign=top;spacingLeft=4;spacingRight=4;overflow=hidden;rotatable=0;points=[[0,0.5],[1,0.5]];portConstraint=eastwest;whiteSpace=wrap;html=1;" parent="jNRlirX99Xx3oKmhsUCX-43" vertex="1">
          <mxGeometry y="130" width="590" height="26" as="geometry" />
        </mxCell>
        <mxCell id="jNRlirX99Xx3oKmhsUCX-50" value="- aeropuetoDestino: Aeropueto" style="text;strokeColor=none;fillColor=none;align=left;verticalAlign=top;spacingLeft=4;spacingRight=4;overflow=hidden;rotatable=0;points=[[0,0.5],[1,0.5]];portConstraint=eastwest;whiteSpace=wrap;html=1;" parent="jNRlirX99Xx3oKmhsUCX-43" vertex="1">
          <mxGeometry y="156" width="590" height="26" as="geometry" />
        </mxCell>
        <mxCell id="jNRlirX99Xx3oKmhsUCX-51" value="- fechaSalida: LocalDateTime" style="text;strokeColor=none;fillColor=none;align=left;verticalAlign=top;spacingLeft=4;spacingRight=4;overflow=hidden;rotatable=0;points=[[0,0.5],[1,0.5]];portConstraint=eastwest;whiteSpace=wrap;html=1;" parent="jNRlirX99Xx3oKmhsUCX-43" vertex="1">
          <mxGeometry y="182" width="590" height="26" as="geometry" />
        </mxCell>
        <mxCell id="jNRlirX99Xx3oKmhsUCX-52" value="- fechaLlegada: LocalDateTime" style="text;strokeColor=none;fillColor=none;align=left;verticalAlign=top;spacingLeft=4;spacingRight=4;overflow=hidden;rotatable=0;points=[[0,0.5],[1,0.5]];portConstraint=eastwest;whiteSpace=wrap;html=1;" parent="jNRlirX99Xx3oKmhsUCX-43" vertex="1">
          <mxGeometry y="208" width="590" height="26" as="geometry" />
        </mxCell>
        <mxCell id="jNRlirX99Xx3oKmhsUCX-53" value="- duracion: long" style="text;strokeColor=none;fillColor=none;align=left;verticalAlign=top;spacingLeft=4;spacingRight=4;overflow=hidden;rotatable=0;points=[[0,0.5],[1,0.5]];portConstraint=eastwest;whiteSpace=wrap;html=1;" parent="jNRlirX99Xx3oKmhsUCX-43" vertex="1">
          <mxGeometry y="234" width="590" height="26" as="geometry" />
        </mxCell>
        <mxCell id="jNRlirX99Xx3oKmhsUCX-54" value="- asientosDisponibles: list&amp;lt;Asiento&amp;gt;" style="text;strokeColor=none;fillColor=none;align=left;verticalAlign=top;spacingLeft=4;spacingRight=4;overflow=hidden;rotatable=0;points=[[0,0.5],[1,0.5]];portConstraint=eastwest;whiteSpace=wrap;html=1;" parent="jNRlirX99Xx3oKmhsUCX-43" vertex="1">
          <mxGeometry y="260" width="590" height="26" as="geometry" />
        </mxCell>
        <mxCell id="jNRlirX99Xx3oKmhsUCX-45" value="" style="line;strokeWidth=1;fillColor=none;align=left;verticalAlign=middle;spacingTop=-1;spacingLeft=3;spacingRight=3;rotatable=0;labelPosition=right;points=[];portConstraint=eastwest;strokeColor=inherit;" parent="jNRlirX99Xx3oKmhsUCX-43" vertex="1">
          <mxGeometry y="286" width="590" height="8" as="geometry" />
        </mxCell>
        <mxCell id="jNRlirX99Xx3oKmhsUCX-46" value="+ calcularCosto(String tipoAsisento, boolean esSeleccionEspesifica, String temporada, int demanda): double" style="text;strokeColor=none;fillColor=none;align=left;verticalAlign=top;spacingLeft=4;spacingRight=4;overflow=hidden;rotatable=0;points=[[0,0.5],[1,0.5]];portConstraint=eastwest;whiteSpace=wrap;html=1;" parent="jNRlirX99Xx3oKmhsUCX-43" vertex="1">
          <mxGeometry y="294" width="590" height="26" as="geometry" />
        </mxCell>
        <mxCell id="jNRlirX99Xx3oKmhsUCX-56" value="+ inicializarAsiento(): void" style="text;strokeColor=none;fillColor=none;align=left;verticalAlign=top;spacingLeft=4;spacingRight=4;overflow=hidden;rotatable=0;points=[[0,0.5],[1,0.5]];portConstraint=eastwest;whiteSpace=wrap;html=1;" parent="jNRlirX99Xx3oKmhsUCX-43" vertex="1">
          <mxGeometry y="320" width="590" height="26" as="geometry" />
        </mxCell>
        <mxCell id="jNRlirX99Xx3oKmhsUCX-57" value="- obtenerCostoBase(String tipoAsiento); double" style="text;strokeColor=none;fillColor=none;align=left;verticalAlign=top;spacingLeft=4;spacingRight=4;overflow=hidden;rotatable=0;points=[[0,0.5],[1,0.5]];portConstraint=eastwest;whiteSpace=wrap;html=1;" parent="jNRlirX99Xx3oKmhsUCX-43" vertex="1">
          <mxGeometry y="346" width="590" height="26" as="geometry" />
        </mxCell>
        <mxCell id="jNRlirX99Xx3oKmhsUCX-58" value="- obtenerIncrementoTemporada(String temporada); double" style="text;strokeColor=none;fillColor=none;align=left;verticalAlign=top;spacingLeft=4;spacingRight=4;overflow=hidden;rotatable=0;points=[[0,0.5],[1,0.5]];portConstraint=eastwest;whiteSpace=wrap;html=1;" parent="jNRlirX99Xx3oKmhsUCX-43" vertex="1">
          <mxGeometry y="372" width="590" height="26" as="geometry" />
        </mxCell>
        <mxCell id="jNRlirX99Xx3oKmhsUCX-59" value="- obtenerIncrementoDemanda(int demanda); int" style="text;strokeColor=none;fillColor=none;align=left;verticalAlign=top;spacingLeft=4;spacingRight=4;overflow=hidden;rotatable=0;points=[[0,0.5],[1,0.5]];portConstraint=eastwest;whiteSpace=wrap;html=1;" parent="jNRlirX99Xx3oKmhsUCX-43" vertex="1">
          <mxGeometry y="398" width="590" height="26" as="geometry" />
        </mxCell>
        <mxCell id="jNRlirX99Xx3oKmhsUCX-64" value="1..1" style="endArrow=open;html=1;endSize=12;startArrow=diamondThin;startSize=14;startFill=1;edgeStyle=orthogonalEdgeStyle;align=left;verticalAlign=bottom;rounded=0;exitX=1;exitY=0.5;exitDx=0;exitDy=0;entryX=0;entryY=0.5;entryDx=0;entryDy=0;" parent="1" source="jNRlirX99Xx3oKmhsUCX-10" target="jNRlirX99Xx3oKmhsUCX-50" edge="1">
          <mxGeometry x="-0.7797" y="15" relative="1" as="geometry">
            <mxPoint x="485" y="340" as="sourcePoint" />
            <mxPoint x="645" y="340" as="targetPoint" />
            <Array as="points">
              <mxPoint x="455" y="301" />
              <mxPoint x="455" y="626" />
            </Array>
            <mxPoint as="offset" />
          </mxGeometry>
        </mxCell>
        <mxCell id="jNRlirX99Xx3oKmhsUCX-65" value="1.." style="endArrow=open;html=1;endSize=12;startArrow=diamondThin;startSize=14;startFill=1;edgeStyle=orthogonalEdgeStyle;align=left;verticalAlign=bottom;rounded=0;exitX=1;exitY=0.5;exitDx=0;exitDy=0;entryX=0;entryY=0.5;entryDx=0;entryDy=0;" parent="1" source="jNRlirX99Xx3oKmhsUCX-41" target="jNRlirX99Xx3oKmhsUCX-48" edge="1">
          <mxGeometry x="0.558" y="4" relative="1" as="geometry">
            <mxPoint x="515" y="500" as="sourcePoint" />
            <mxPoint x="675" y="500" as="targetPoint" />
            <Array as="points">
              <mxPoint x="485" y="655" />
              <mxPoint x="485" y="574" />
            </Array>
            <mxPoint as="offset" />
          </mxGeometry>
        </mxCell>
        <mxCell id="zvzevLNS8tnTN_DHtSrc-13" value="&lt;div&gt;&amp;lt;&amp;lt;Enum&amp;gt;&amp;gt;&lt;/div&gt;TipoAsiento" style="swimlane;fontStyle=1;align=center;verticalAlign=top;childLayout=stackLayout;horizontal=1;startSize=40;horizontalStack=0;resizeParent=1;resizeParentMax=0;resizeLast=0;collapsible=1;marginBottom=0;whiteSpace=wrap;html=1;" parent="1" vertex="1">
          <mxGeometry x="355" y="10" width="160" height="144" as="geometry" />
        </mxCell>
        <mxCell id="zvzevLNS8tnTN_DHtSrc-14" value="+ ECONOMICO" style="text;strokeColor=none;fillColor=none;align=left;verticalAlign=top;spacingLeft=4;spacingRight=4;overflow=hidden;rotatable=0;points=[[0,0.5],[1,0.5]];portConstraint=eastwest;whiteSpace=wrap;html=1;" parent="zvzevLNS8tnTN_DHtSrc-13" vertex="1">
          <mxGeometry y="40" width="160" height="26" as="geometry" />
        </mxCell>
        <mxCell id="zvzevLNS8tnTN_DHtSrc-17" value="+ ECONOMICOPREMIUN" style="text;strokeColor=none;fillColor=none;align=left;verticalAlign=top;spacingLeft=4;spacingRight=4;overflow=hidden;rotatable=0;points=[[0,0.5],[1,0.5]];portConstraint=eastwest;whiteSpace=wrap;html=1;" parent="zvzevLNS8tnTN_DHtSrc-13" vertex="1">
          <mxGeometry y="66" width="160" height="26" as="geometry" />
        </mxCell>
        <mxCell id="zvzevLNS8tnTN_DHtSrc-18" value="+ BUSINESS" style="text;strokeColor=none;fillColor=none;align=left;verticalAlign=top;spacingLeft=4;spacingRight=4;overflow=hidden;rotatable=0;points=[[0,0.5],[1,0.5]];portConstraint=eastwest;whiteSpace=wrap;html=1;" parent="zvzevLNS8tnTN_DHtSrc-13" vertex="1">
          <mxGeometry y="92" width="160" height="26" as="geometry" />
        </mxCell>
        <mxCell id="zvzevLNS8tnTN_DHtSrc-19" value="+ PRIMERACLASE" style="text;strokeColor=none;fillColor=none;align=left;verticalAlign=top;spacingLeft=4;spacingRight=4;overflow=hidden;rotatable=0;points=[[0,0.5],[1,0.5]];portConstraint=eastwest;whiteSpace=wrap;html=1;" parent="zvzevLNS8tnTN_DHtSrc-13" vertex="1">
          <mxGeometry y="118" width="160" height="26" as="geometry" />
        </mxCell>
        <mxCell id="zvzevLNS8tnTN_DHtSrc-20" value="1.." style="endArrow=open;html=1;endSize=12;startArrow=diamondThin;startSize=14;startFill=0;edgeStyle=orthogonalEdgeStyle;align=left;verticalAlign=bottom;rounded=0;exitX=1;exitY=0.5;exitDx=0;exitDy=0;entryX=0.5;entryY=0;entryDx=0;entryDy=0;" parent="1" source="zvzevLNS8tnTN_DHtSrc-17" target="jNRlirX99Xx3oKmhsUCX-5" edge="1">
          <mxGeometry x="-0.4313" y="-21" relative="1" as="geometry">
            <mxPoint x="545" y="90" as="sourcePoint" />
            <mxPoint x="705" y="90" as="targetPoint" />
            <mxPoint as="offset" />
          </mxGeometry>
        </mxCell>
        <mxCell id="UA21897XL3gW9iZpCjo0-2" value="&lt;div&gt;Reserva&lt;/div&gt;" style="swimlane;fontStyle=1;align=center;verticalAlign=top;childLayout=stackLayout;horizontal=1;startSize=30;horizontalStack=0;resizeParent=1;resizeParentMax=0;resizeLast=0;collapsible=1;marginBottom=0;whiteSpace=wrap;html=1;" parent="1" vertex="1">
          <mxGeometry x="755" y="210" width="160" height="194" as="geometry" />
        </mxCell>
        <mxCell id="UA21897XL3gW9iZpCjo0-3" value="- idReserva: int" style="text;strokeColor=none;fillColor=none;align=left;verticalAlign=top;spacingLeft=4;spacingRight=4;overflow=hidden;rotatable=0;points=[[0,0.5],[1,0.5]];portConstraint=eastwest;whiteSpace=wrap;html=1;" parent="UA21897XL3gW9iZpCjo0-2" vertex="1">
          <mxGeometry y="30" width="160" height="26" as="geometry" />
        </mxCell>
        <mxCell id="UA21897XL3gW9iZpCjo0-7" value="- asiento: Asiento" style="text;strokeColor=none;fillColor=none;align=left;verticalAlign=top;spacingLeft=4;spacingRight=4;overflow=hidden;rotatable=0;points=[[0,0.5],[1,0.5]];portConstraint=eastwest;whiteSpace=wrap;html=1;" parent="UA21897XL3gW9iZpCjo0-2" vertex="1">
          <mxGeometry y="56" width="160" height="26" as="geometry" />
        </mxCell>
        <mxCell id="UA21897XL3gW9iZpCjo0-8" value="- vuelo: Vuelo" style="text;strokeColor=none;fillColor=none;align=left;verticalAlign=top;spacingLeft=4;spacingRight=4;overflow=hidden;rotatable=0;points=[[0,0.5],[1,0.5]];portConstraint=eastwest;whiteSpace=wrap;html=1;" parent="UA21897XL3gW9iZpCjo0-2" vertex="1">
          <mxGeometry y="82" width="160" height="26" as="geometry" />
        </mxCell>
        <mxCell id="UA21897XL3gW9iZpCjo0-15" value="- fechaReserva: LocalDate" style="text;strokeColor=none;fillColor=none;align=left;verticalAlign=top;spacingLeft=4;spacingRight=4;overflow=hidden;rotatable=0;points=[[0,0.5],[1,0.5]];portConstraint=eastwest;whiteSpace=wrap;html=1;" parent="UA21897XL3gW9iZpCjo0-2" vertex="1">
          <mxGeometry y="108" width="160" height="26" as="geometry" />
        </mxCell>
        <mxCell id="UA21897XL3gW9iZpCjo0-14" value="- estadoReserva: EstadoR" style="text;strokeColor=none;fillColor=none;align=left;verticalAlign=top;spacingLeft=4;spacingRight=4;overflow=hidden;rotatable=0;points=[[0,0.5],[1,0.5]];portConstraint=eastwest;whiteSpace=wrap;html=1;" parent="UA21897XL3gW9iZpCjo0-2" vertex="1">
          <mxGeometry y="134" width="160" height="26" as="geometry" />
        </mxCell>
        <mxCell id="UA21897XL3gW9iZpCjo0-4" value="" style="line;strokeWidth=1;fillColor=none;align=left;verticalAlign=middle;spacingTop=-1;spacingLeft=3;spacingRight=3;rotatable=0;labelPosition=right;points=[];portConstraint=eastwest;strokeColor=inherit;" parent="UA21897XL3gW9iZpCjo0-2" vertex="1">
          <mxGeometry y="160" width="160" height="8" as="geometry" />
        </mxCell>
        <mxCell id="UA21897XL3gW9iZpCjo0-5" value="+ method(type): type" style="text;strokeColor=none;fillColor=none;align=left;verticalAlign=top;spacingLeft=4;spacingRight=4;overflow=hidden;rotatable=0;points=[[0,0.5],[1,0.5]];portConstraint=eastwest;whiteSpace=wrap;html=1;" parent="UA21897XL3gW9iZpCjo0-2" vertex="1">
          <mxGeometry y="168" width="160" height="26" as="geometry" />
        </mxCell>
        <mxCell id="UA21897XL3gW9iZpCjo0-9" value="1.." style="endArrow=open;html=1;endSize=12;startArrow=diamondThin;startSize=14;startFill=0;edgeStyle=orthogonalEdgeStyle;align=left;verticalAlign=bottom;rounded=0;exitX=1;exitY=0.25;exitDx=0;exitDy=0;entryX=0;entryY=0.5;entryDx=0;entryDy=0;" parent="1" source="jNRlirX99Xx3oKmhsUCX-5" target="UA21897XL3gW9iZpCjo0-7" edge="1">
          <mxGeometry x="-0.5297" relative="1" as="geometry">
            <mxPoint x="735" y="410" as="sourcePoint" />
            <mxPoint x="895" y="410" as="targetPoint" />
            <Array as="points">
              <mxPoint x="725" y="246" />
              <mxPoint x="725" y="279" />
            </Array>
            <mxPoint as="offset" />
          </mxGeometry>
        </mxCell>
        <mxCell id="UA21897XL3gW9iZpCjo0-10" value="1.." style="endArrow=open;html=1;endSize=12;startArrow=diamondThin;startSize=14;startFill=0;edgeStyle=orthogonalEdgeStyle;align=left;verticalAlign=bottom;rounded=0;exitX=0.25;exitY=0;exitDx=0;exitDy=0;entryX=0;entryY=0.5;entryDx=0;entryDy=0;" parent="1" source="jNRlirX99Xx3oKmhsUCX-43" target="UA21897XL3gW9iZpCjo0-8" edge="1">
          <mxGeometry x="-0.4103" relative="1" as="geometry">
            <mxPoint x="695" y="420" as="sourcePoint" />
            <mxPoint x="855" y="420" as="targetPoint" />
            <Array as="points">
              <mxPoint x="672" y="420" />
              <mxPoint x="725" y="420" />
              <mxPoint x="725" y="305" />
            </Array>
            <mxPoint as="offset" />
          </mxGeometry>
        </mxCell>
        <mxCell id="UA21897XL3gW9iZpCjo0-11" value="..1" style="endArrow=open;html=1;endSize=12;startArrow=diamondThin;startSize=14;startFill=0;edgeStyle=orthogonalEdgeStyle;align=left;verticalAlign=bottom;rounded=0;exitX=1;exitY=0.25;exitDx=0;exitDy=0;entryX=0;entryY=0.5;entryDx=0;entryDy=0;" parent="1" source="UA21897XL3gW9iZpCjo0-2" target="UA21897XL3gW9iZpCjo0-1" edge="1">
          <mxGeometry x="-0.7162" relative="1" as="geometry">
            <mxPoint x="615" y="480" as="sourcePoint" />
            <mxPoint x="775" y="480" as="targetPoint" />
            <Array as="points">
              <mxPoint x="945" y="258" />
              <mxPoint x="945" y="339" />
            </Array>
            <mxPoint as="offset" />
          </mxGeometry>
        </mxCell>
        <mxCell id="UA21897XL3gW9iZpCjo0-16" value="&amp;lt;&amp;lt;Enum&amp;gt;&amp;gt;&lt;div&gt;EstadoR&lt;/div&gt;" style="swimlane;fontStyle=0;childLayout=stackLayout;horizontal=1;startSize=35;fillColor=none;horizontalStack=0;resizeParent=1;resizeParentMax=0;resizeLast=0;collapsible=1;marginBottom=0;whiteSpace=wrap;html=1;" parent="1" vertex="1">
          <mxGeometry x="1135" y="457" width="140" height="243" as="geometry" />
        </mxCell>
        <mxCell id="UA21897XL3gW9iZpCjo0-17" value="+ PENDIENTE" style="text;strokeColor=none;fillColor=none;align=left;verticalAlign=top;spacingLeft=4;spacingRight=4;overflow=hidden;rotatable=0;points=[[0,0.5],[1,0.5]];portConstraint=eastwest;whiteSpace=wrap;html=1;" parent="UA21897XL3gW9iZpCjo0-16" vertex="1">
          <mxGeometry y="35" width="140" height="26" as="geometry" />
        </mxCell>
        <mxCell id="UA21897XL3gW9iZpCjo0-18" value="+ CONFIRMADA" style="text;strokeColor=none;fillColor=none;align=left;verticalAlign=top;spacingLeft=4;spacingRight=4;overflow=hidden;rotatable=0;points=[[0,0.5],[1,0.5]];portConstraint=eastwest;whiteSpace=wrap;html=1;" parent="UA21897XL3gW9iZpCjo0-16" vertex="1">
          <mxGeometry y="61" width="140" height="26" as="geometry" />
        </mxCell>
        <mxCell id="UA21897XL3gW9iZpCjo0-19" value="+ CANCELADA" style="text;strokeColor=none;fillColor=none;align=left;verticalAlign=top;spacingLeft=4;spacingRight=4;overflow=hidden;rotatable=0;points=[[0,0.5],[1,0.5]];portConstraint=eastwest;whiteSpace=wrap;html=1;" parent="UA21897XL3gW9iZpCjo0-16" vertex="1">
          <mxGeometry y="87" width="140" height="26" as="geometry" />
        </mxCell>
        <mxCell id="UA21897XL3gW9iZpCjo0-20" value="+ PAGADA" style="text;strokeColor=none;fillColor=none;align=left;verticalAlign=top;spacingLeft=4;spacingRight=4;overflow=hidden;rotatable=0;points=[[0,0.5],[1,0.5]];portConstraint=eastwest;whiteSpace=wrap;html=1;" parent="UA21897XL3gW9iZpCjo0-16" vertex="1">
          <mxGeometry y="113" width="140" height="26" as="geometry" />
        </mxCell>
        <mxCell id="UA21897XL3gW9iZpCjo0-21" value="+ REEMBOLSADA" style="text;strokeColor=none;fillColor=none;align=left;verticalAlign=top;spacingLeft=4;spacingRight=4;overflow=hidden;rotatable=0;points=[[0,0.5],[1,0.5]];portConstraint=eastwest;whiteSpace=wrap;html=1;" parent="UA21897XL3gW9iZpCjo0-16" vertex="1">
          <mxGeometry y="139" width="140" height="26" as="geometry" />
        </mxCell>
        <mxCell id="UA21897XL3gW9iZpCjo0-22" value="+ EN_ESPERA" style="text;strokeColor=none;fillColor=none;align=left;verticalAlign=top;spacingLeft=4;spacingRight=4;overflow=hidden;rotatable=0;points=[[0,0.5],[1,0.5]];portConstraint=eastwest;whiteSpace=wrap;html=1;" parent="UA21897XL3gW9iZpCjo0-16" vertex="1">
          <mxGeometry y="165" width="140" height="26" as="geometry" />
        </mxCell>
        <mxCell id="UA21897XL3gW9iZpCjo0-23" value="+ COMPLETADA" style="text;strokeColor=none;fillColor=none;align=left;verticalAlign=top;spacingLeft=4;spacingRight=4;overflow=hidden;rotatable=0;points=[[0,0.5],[1,0.5]];portConstraint=eastwest;whiteSpace=wrap;html=1;" parent="UA21897XL3gW9iZpCjo0-16" vertex="1">
          <mxGeometry y="191" width="140" height="26" as="geometry" />
        </mxCell>
        <mxCell id="UA21897XL3gW9iZpCjo0-24" value="+ NO_SHOW" style="text;strokeColor=none;fillColor=none;align=left;verticalAlign=top;spacingLeft=4;spacingRight=4;overflow=hidden;rotatable=0;points=[[0,0.5],[1,0.5]];portConstraint=eastwest;whiteSpace=wrap;html=1;" parent="UA21897XL3gW9iZpCjo0-16" vertex="1">
          <mxGeometry y="217" width="140" height="26" as="geometry" />
        </mxCell>
        <mxCell id="UA21897XL3gW9iZpCjo0-25" value="..1" style="endArrow=open;html=1;endSize=12;startArrow=diamondThin;startSize=14;startFill=0;edgeStyle=orthogonalEdgeStyle;align=left;verticalAlign=bottom;rounded=0;exitX=1;exitY=0.5;exitDx=0;exitDy=0;entryX=0.5;entryY=0;entryDx=0;entryDy=0;" parent="1" source="UA21897XL3gW9iZpCjo0-14" target="UA21897XL3gW9iZpCjo0-16" edge="1">
          <mxGeometry x="-0.1889" relative="1" as="geometry">
            <mxPoint x="965" y="429" as="sourcePoint" />
            <mxPoint x="1125" y="429" as="targetPoint" />
            <Array as="points">
              <mxPoint x="945" y="357" />
              <mxPoint x="945" y="440" />
              <mxPoint x="1205" y="440" />
            </Array>
            <mxPoint as="offset" />
          </mxGeometry>
        </mxCell>
        <mxCell id="UA21897XL3gW9iZpCjo0-34" value="Pasajero" style="swimlane;fontStyle=1;align=center;verticalAlign=top;childLayout=stackLayout;horizontal=1;startSize=26;horizontalStack=0;resizeParent=1;resizeParentMax=0;resizeLast=0;collapsible=1;marginBottom=0;whiteSpace=wrap;html=1;" parent="1" vertex="1">
          <mxGeometry x="985" y="300" width="160" height="112" as="geometry" />
        </mxCell>
        <mxCell id="UA21897XL3gW9iZpCjo0-1" value="- reserva: Reserva" style="text;strokeColor=none;fillColor=none;align=left;verticalAlign=top;spacingLeft=4;spacingRight=4;overflow=hidden;rotatable=0;points=[[0,0.5],[1,0.5]];portConstraint=eastwest;whiteSpace=wrap;html=1;" parent="UA21897XL3gW9iZpCjo0-34" vertex="1">
          <mxGeometry y="26" width="160" height="26" as="geometry" />
        </mxCell>
        <mxCell id="UA21897XL3gW9iZpCjo0-46" value="- beneficiario: boolean" style="text;strokeColor=none;fillColor=none;align=left;verticalAlign=top;spacingLeft=4;spacingRight=4;overflow=hidden;rotatable=0;points=[[0,0.5],[1,0.5]];portConstraint=eastwest;whiteSpace=wrap;html=1;" parent="UA21897XL3gW9iZpCjo0-34" vertex="1">
          <mxGeometry y="52" width="160" height="26" as="geometry" />
        </mxCell>
        <mxCell id="UA21897XL3gW9iZpCjo0-36" value="" style="line;strokeWidth=1;fillColor=none;align=left;verticalAlign=middle;spacingTop=-1;spacingLeft=3;spacingRight=3;rotatable=0;labelPosition=right;points=[];portConstraint=eastwest;strokeColor=inherit;" parent="UA21897XL3gW9iZpCjo0-34" vertex="1">
          <mxGeometry y="78" width="160" height="8" as="geometry" />
        </mxCell>
        <mxCell id="UA21897XL3gW9iZpCjo0-37" value="+ method(type): type" style="text;strokeColor=none;fillColor=none;align=left;verticalAlign=top;spacingLeft=4;spacingRight=4;overflow=hidden;rotatable=0;points=[[0,0.5],[1,0.5]];portConstraint=eastwest;whiteSpace=wrap;html=1;" parent="UA21897XL3gW9iZpCjo0-34" vertex="1">
          <mxGeometry y="86" width="160" height="26" as="geometry" />
        </mxCell>
        <mxCell id="UA21897XL3gW9iZpCjo0-38" value="Extends" style="endArrow=block;endSize=16;endFill=0;html=1;rounded=0;exitX=0.5;exitY=0;exitDx=0;exitDy=0;entryX=0.311;entryY=1;entryDx=0;entryDy=0;entryPerimeter=0;" parent="1" source="UA21897XL3gW9iZpCjo0-34" target="jNRlirX99Xx3oKmhsUCX-31" edge="1">
          <mxGeometry width="160" relative="1" as="geometry">
            <mxPoint x="935" y="220" as="sourcePoint" />
            <mxPoint x="1095" y="220" as="targetPoint" />
          </mxGeometry>
        </mxCell>
        <mxCell id="UA21897XL3gW9iZpCjo0-39" value="Personal" style="swimlane;fontStyle=1;align=center;verticalAlign=top;childLayout=stackLayout;horizontal=1;startSize=26;horizontalStack=0;resizeParent=1;resizeParentMax=0;resizeLast=0;collapsible=1;marginBottom=0;whiteSpace=wrap;html=1;" parent="1" vertex="1">
          <mxGeometry x="1175" y="300" width="160" height="86" as="geometry" />
        </mxCell>
        <mxCell id="UA21897XL3gW9iZpCjo0-40" value="+ field: type" style="text;strokeColor=none;fillColor=none;align=left;verticalAlign=top;spacingLeft=4;spacingRight=4;overflow=hidden;rotatable=0;points=[[0,0.5],[1,0.5]];portConstraint=eastwest;whiteSpace=wrap;html=1;" parent="UA21897XL3gW9iZpCjo0-39" vertex="1">
          <mxGeometry y="26" width="160" height="26" as="geometry" />
        </mxCell>
        <mxCell id="UA21897XL3gW9iZpCjo0-41" value="" style="line;strokeWidth=1;fillColor=none;align=left;verticalAlign=middle;spacingTop=-1;spacingLeft=3;spacingRight=3;rotatable=0;labelPosition=right;points=[];portConstraint=eastwest;strokeColor=inherit;" parent="UA21897XL3gW9iZpCjo0-39" vertex="1">
          <mxGeometry y="52" width="160" height="8" as="geometry" />
        </mxCell>
        <mxCell id="UA21897XL3gW9iZpCjo0-42" value="+ method(type): type" style="text;strokeColor=none;fillColor=none;align=left;verticalAlign=top;spacingLeft=4;spacingRight=4;overflow=hidden;rotatable=0;points=[[0,0.5],[1,0.5]];portConstraint=eastwest;whiteSpace=wrap;html=1;" parent="UA21897XL3gW9iZpCjo0-39" vertex="1">
          <mxGeometry y="60" width="160" height="26" as="geometry" />
        </mxCell>
        <mxCell id="UA21897XL3gW9iZpCjo0-43" value="Extends" style="endArrow=block;endSize=16;endFill=0;html=1;rounded=0;exitX=1;exitY=0;exitDx=0;exitDy=0;entryX=0.713;entryY=0.923;entryDx=0;entryDy=0;entryPerimeter=0;" parent="1" source="UA21897XL3gW9iZpCjo0-39" target="jNRlirX99Xx3oKmhsUCX-31" edge="1">
          <mxGeometry width="160" relative="1" as="geometry">
            <mxPoint x="975" y="260" as="sourcePoint" />
            <mxPoint x="1135" y="260" as="targetPoint" />
          </mxGeometry>
        </mxCell>
        <mxCell id="UA21897XL3gW9iZpCjo0-47" value="Ticket" style="swimlane;fontStyle=1;align=center;verticalAlign=top;childLayout=stackLayout;horizontal=1;startSize=26;horizontalStack=0;resizeParent=1;resizeParentMax=0;resizeLast=0;collapsible=1;marginBottom=0;whiteSpace=wrap;html=1;" parent="1" vertex="1">
          <mxGeometry x="1005" y="10" width="160" height="190" as="geometry" />
        </mxCell>
        <mxCell id="UA21897XL3gW9iZpCjo0-48" value="- idTicket: int" style="text;strokeColor=none;fillColor=none;align=left;verticalAlign=top;spacingLeft=4;spacingRight=4;overflow=hidden;rotatable=0;points=[[0,0.5],[1,0.5]];portConstraint=eastwest;whiteSpace=wrap;html=1;" parent="UA21897XL3gW9iZpCjo0-47" vertex="1">
          <mxGeometry y="26" width="160" height="26" as="geometry" />
        </mxCell>
        <mxCell id="UA21897XL3gW9iZpCjo0-51" value="- reserva: Reserva" style="text;strokeColor=none;fillColor=none;align=left;verticalAlign=top;spacingLeft=4;spacingRight=4;overflow=hidden;rotatable=0;points=[[0,0.5],[1,0.5]];portConstraint=eastwest;whiteSpace=wrap;html=1;" parent="UA21897XL3gW9iZpCjo0-47" vertex="1">
          <mxGeometry y="52" width="160" height="26" as="geometry" />
        </mxCell>
        <mxCell id="UA21897XL3gW9iZpCjo0-52" value="- pasajero: Pasajero" style="text;strokeColor=none;fillColor=none;align=left;verticalAlign=top;spacingLeft=4;spacingRight=4;overflow=hidden;rotatable=0;points=[[0,0.5],[1,0.5]];portConstraint=eastwest;whiteSpace=wrap;html=1;" parent="UA21897XL3gW9iZpCjo0-47" vertex="1">
          <mxGeometry y="78" width="160" height="26" as="geometry" />
        </mxCell>
        <mxCell id="UA21897XL3gW9iZpCjo0-53" value="- fechaEmision: LocalDate" style="text;strokeColor=none;fillColor=none;align=left;verticalAlign=top;spacingLeft=4;spacingRight=4;overflow=hidden;rotatable=0;points=[[0,0.5],[1,0.5]];portConstraint=eastwest;whiteSpace=wrap;html=1;" parent="UA21897XL3gW9iZpCjo0-47" vertex="1">
          <mxGeometry y="104" width="160" height="26" as="geometry" />
        </mxCell>
        <mxCell id="UA21897XL3gW9iZpCjo0-54" value="- estadoTicket: EstadoT" style="text;strokeColor=none;fillColor=none;align=left;verticalAlign=top;spacingLeft=4;spacingRight=4;overflow=hidden;rotatable=0;points=[[0,0.5],[1,0.5]];portConstraint=eastwest;whiteSpace=wrap;html=1;" parent="UA21897XL3gW9iZpCjo0-47" vertex="1">
          <mxGeometry y="130" width="160" height="26" as="geometry" />
        </mxCell>
        <mxCell id="UA21897XL3gW9iZpCjo0-49" value="" style="line;strokeWidth=1;fillColor=none;align=left;verticalAlign=middle;spacingTop=-1;spacingLeft=3;spacingRight=3;rotatable=0;labelPosition=right;points=[];portConstraint=eastwest;strokeColor=inherit;" parent="UA21897XL3gW9iZpCjo0-47" vertex="1">
          <mxGeometry y="156" width="160" height="8" as="geometry" />
        </mxCell>
        <mxCell id="UA21897XL3gW9iZpCjo0-50" value="+ method(type): type" style="text;strokeColor=none;fillColor=none;align=left;verticalAlign=top;spacingLeft=4;spacingRight=4;overflow=hidden;rotatable=0;points=[[0,0.5],[1,0.5]];portConstraint=eastwest;whiteSpace=wrap;html=1;" parent="UA21897XL3gW9iZpCjo0-47" vertex="1">
          <mxGeometry y="164" width="160" height="26" as="geometry" />
        </mxCell>
        <mxCell id="h9rD37L05Qa0w3FGJ-1x-1" value="1..1" style="endArrow=open;html=1;endSize=12;startArrow=diamondThin;startSize=14;startFill=0;edgeStyle=orthogonalEdgeStyle;align=left;verticalAlign=bottom;rounded=0;exitX=0.75;exitY=0;exitDx=0;exitDy=0;entryX=0;entryY=0.5;entryDx=0;entryDy=0;" parent="1" source="UA21897XL3gW9iZpCjo0-2" target="UA21897XL3gW9iZpCjo0-51" edge="1">
          <mxGeometry x="0.0943" y="5" relative="1" as="geometry">
            <mxPoint x="935" y="210" as="sourcePoint" />
            <mxPoint x="1095" y="210" as="targetPoint" />
            <mxPoint as="offset" />
          </mxGeometry>
        </mxCell>
        <mxCell id="h9rD37L05Qa0w3FGJ-1x-2" value="1..1" style="endArrow=open;html=1;endSize=12;startArrow=diamondThin;startSize=14;startFill=0;edgeStyle=orthogonalEdgeStyle;align=left;verticalAlign=bottom;rounded=0;exitX=0.25;exitY=0;exitDx=0;exitDy=0;entryX=0;entryY=0.5;entryDx=0;entryDy=0;" parent="1" source="UA21897XL3gW9iZpCjo0-34" target="UA21897XL3gW9iZpCjo0-52" edge="1">
          <mxGeometry x="-0.1223" relative="1" as="geometry">
            <mxPoint x="935" y="210" as="sourcePoint" />
            <mxPoint x="1095" y="210" as="targetPoint" />
            <Array as="points">
              <mxPoint x="1025" y="220" />
              <mxPoint x="955" y="220" />
              <mxPoint x="955" y="101" />
            </Array>
            <mxPoint as="offset" />
          </mxGeometry>
        </mxCell>
        <mxCell id="h9rD37L05Qa0w3FGJ-1x-3" value="&amp;lt;&amp;lt;Enum&amp;gt;&amp;gt;&lt;div&gt;EstadoT&lt;/div&gt;" style="swimlane;fontStyle=0;childLayout=stackLayout;horizontal=1;startSize=30;fillColor=none;horizontalStack=0;resizeParent=1;resizeParentMax=0;resizeLast=0;collapsible=1;marginBottom=0;whiteSpace=wrap;html=1;" parent="1" vertex="1">
          <mxGeometry x="675" y="30" width="150" height="134" as="geometry" />
        </mxCell>
        <mxCell id="h9rD37L05Qa0w3FGJ-1x-4" value="+ CHECK_IN" style="text;strokeColor=none;fillColor=none;align=left;verticalAlign=top;spacingLeft=4;spacingRight=4;overflow=hidden;rotatable=0;points=[[0,0.5],[1,0.5]];portConstraint=eastwest;whiteSpace=wrap;html=1;" parent="h9rD37L05Qa0w3FGJ-1x-3" vertex="1">
          <mxGeometry y="30" width="150" height="26" as="geometry" />
        </mxCell>
        <mxCell id="h9rD37L05Qa0w3FGJ-1x-5" value="+ ABORDADO" style="text;strokeColor=none;fillColor=none;align=left;verticalAlign=top;spacingLeft=4;spacingRight=4;overflow=hidden;rotatable=0;points=[[0,0.5],[1,0.5]];portConstraint=eastwest;whiteSpace=wrap;html=1;" parent="h9rD37L05Qa0w3FGJ-1x-3" vertex="1">
          <mxGeometry y="56" width="150" height="26" as="geometry" />
        </mxCell>
        <mxCell id="h9rD37L05Qa0w3FGJ-1x-6" value="+ VUELO_TERMINADO" style="text;strokeColor=none;fillColor=none;align=left;verticalAlign=top;spacingLeft=4;spacingRight=4;overflow=hidden;rotatable=0;points=[[0,0.5],[1,0.5]];portConstraint=eastwest;whiteSpace=wrap;html=1;" parent="h9rD37L05Qa0w3FGJ-1x-3" vertex="1">
          <mxGeometry y="82" width="150" height="26" as="geometry" />
        </mxCell>
        <mxCell id="h9rD37L05Qa0w3FGJ-1x-7" value="+ VUELO_CANCELADO" style="text;strokeColor=none;fillColor=none;align=left;verticalAlign=top;spacingLeft=4;spacingRight=4;overflow=hidden;rotatable=0;points=[[0,0.5],[1,0.5]];portConstraint=eastwest;whiteSpace=wrap;html=1;" parent="h9rD37L05Qa0w3FGJ-1x-3" vertex="1">
          <mxGeometry y="108" width="150" height="26" as="geometry" />
        </mxCell>
        <mxCell id="h9rD37L05Qa0w3FGJ-1x-8" value="1.." style="endArrow=open;html=1;endSize=12;startArrow=diamondThin;startSize=14;startFill=0;edgeStyle=orthogonalEdgeStyle;align=left;verticalAlign=bottom;rounded=0;exitX=1;exitY=0.5;exitDx=0;exitDy=0;entryX=0;entryY=0.5;entryDx=0;entryDy=0;" parent="1" source="h9rD37L05Qa0w3FGJ-1x-5" target="UA21897XL3gW9iZpCjo0-54" edge="1">
          <mxGeometry x="-0.8718" relative="1" as="geometry">
            <mxPoint x="705" y="210" as="sourcePoint" />
            <mxPoint x="865" y="210" as="targetPoint" />
            <Array as="points">
              <mxPoint x="910" y="99" />
              <mxPoint x="910" y="153" />
            </Array>
            <mxPoint as="offset" />
          </mxGeometry>
        </mxCell>
      </root>
    </mxGraphModel>
  </diagram>
  <diagram id="cpt9ERXBTGwoCJlxO2xi" name="Gestion de Reservas">
    <mxGraphModel dx="1744" dy="886" grid="1" gridSize="10" guides="1" tooltips="1" connect="1" arrows="1" fold="1" page="1" pageScale="1" pageWidth="1600" pageHeight="900" math="0" shadow="0">
      <root>
        <mxCell id="0" />
        <mxCell id="1" parent="0" />
      </root>
    </mxGraphModel>
  </diagram>
  <diagram id="zlGdXQqFxzDytDPg1Yeg" name="Gestion de Tickets">
    <mxGraphModel dx="872" dy="443" grid="1" gridSize="10" guides="1" tooltips="1" connect="1" arrows="1" fold="1" page="1" pageScale="1" pageWidth="827" pageHeight="1169" math="0" shadow="0">
      <root>
        <mxCell id="0" />
        <mxCell id="1" parent="0" />
      </root>
    </mxGraphModel>
  </diagram>
</mxfile>
